<svg viewBox="0 0 200 160" xmlns="http://www.w3.org/2000/svg">
  <defs>
    <radialGradient id="bgc" cx="50%" cy="28%" r="85%">
      <stop offset="0%" stop-color="#DCE0F0"/>
      <stop offset="100%" stop-color="#A6ADCB"/>
    </radialGradient>
    <linearGradient id="cloth" x1="0" y1="0" x2="1" y2="1">
      <stop offset="0%" stop-color="#2B3B5E"/>
      <stop offset="100%" stop-color="#161F33"/>
    </linearGradient>
    <filter id="softc" x="-40%" y="-40%" width="180%" height="180%">
      <feDropShadow dx="0" dy="5" stdDeviation="4" flood-color="#10141f" flood-opacity="0.35"/>
    </filter>
  </defs>
  <rect width="200" height="160" fill="url(#bgc)"/>
  <ellipse cx="100" cy="146" rx="60" ry="7" fill="#10141f" opacity="0.2"/>
  <g filter="url(#softc)">
    <rect x="48" y="44" width="104" height="92" rx="4" fill="url(#cloth)" stroke="#C89B3C" stroke-width="3"/>
  </g>
  <g stroke="#E4C878" stroke-width="2" fill="none">
    <path d="M65 62 L75 72 L65 82 L55 72 Z"/>
    <path d="M100 62 L110 72 L100 82 L90 72 Z"/>
    <path d="M135 62 L145 72 L135 82 L125 72 Z"/>
    <path d="M82 92 L92 102 L82 112 L72 102 Z"/>
    <path d="M118 92 L128 102 L118 112 L108 102 Z"/>
    <path d="M65 118 L75 128 L65 136 L55 128 Z"/>
    <path d="M135 118 L145 128 L135 136 L125 128 Z"/>
  </g>
  <circle cx="65" cy="72" r="2" fill="#F6E7BE"/>
  <circle cx="100" cy="72" r="2" fill="#F6E7BE"/>
  <circle cx="135" cy="72" r="2" fill="#F6E7BE"/>
  <rect x="48" y="44" width="104" height="92" rx="4" fill="none" stroke="#C89B3C" stroke-width="3"/>
  <rect x="48" y="44" width="104" height="14" fill="#F6E7BE" opacity="0.06"/>
</svg>
