<svg viewBox="0 0 200 160" xmlns="http://www.w3.org/2000/svg">
  <defs>
    <radialGradient id="bg1" cx="50%" cy="30%" r="80%">
      <stop offset="0%" stop-color="#FBEFC9"/>
      <stop offset="100%" stop-color="#E6C877"/>
    </radialGradient>
    <linearGradient id="bagKeripik" x1="0" y1="0" x2="0" y2="1">
      <stop offset="0%" stop-color="#FFFFFF"/>
      <stop offset="100%" stop-color="#F1E9D6"/>
    </linearGradient>
    <radialGradient id="chip1" cx="35%" cy="30%" r="75%">
      <stop offset="0%" stop-color="#F6DE9E"/>
      <stop offset="100%" stop-color="#C9922E"/>
    </radialGradient>
    <filter id="soft" x="-40%" y="-40%" width="180%" height="180%">
      <feDropShadow dx="0" dy="4" stdDeviation="4" flood-color="#3a2a10" flood-opacity="0.28"/>
    </filter>
  </defs>
  <rect width="200" height="160" fill="url(#bg1)"/>
  <ellipse cx="100" cy="138" rx="76" ry="10" fill="#6B3A20" opacity="0.18"/>
  <g filter="url(#soft)">
    <path d="M68 38 L132 38 L140 60 L138 132 Q138 142 128 142 L72 142 Q62 142 62 132 L60 60 Z" fill="url(#bagKeripik)" stroke="#A6432B" stroke-width="3"/>
    <path d="M68 38 L73 27 L127 27 L132 38 Z" fill="#C89B3C"/>
    <rect x="66" y="60" width="68" height="14" fill="#1E2A44" opacity="0.9"/>
    <text x="100" y="70" font-family="JetBrains Mono, monospace" font-size="8" fill="#E4C878" text-anchor="middle" font-weight="700">SALE ACEH</text>
  </g>
  <g filter="url(#soft)">
    <ellipse cx="88" cy="98" rx="16" ry="10" fill="url(#chip1)" stroke="#8A5A20" stroke-width="1.5" transform="rotate(-16 88 98)"/>
    <ellipse cx="118" cy="112" rx="16" ry="10" fill="url(#chip1)" stroke="#8A5A20" stroke-width="1.5" transform="rotate(12 118 112)"/>
    <ellipse cx="100" cy="122" rx="15" ry="9" fill="#F6E7BE" stroke="#8A5A20" stroke-width="1.5" transform="rotate(-4 100 122)"/>
    <ellipse cx="72" cy="108" rx="14" ry="8" fill="url(#chip1)" stroke="#8A5A20" stroke-width="1.5" transform="rotate(20 72 108)"/>
  </g>
  <ellipse cx="83" cy="93" rx="4" ry="2" fill="#FFF8E3" opacity="0.7"/>
  <ellipse cx="113" cy="107" rx="4" ry="2" fill="#FFF8E3" opacity="0.7"/>
  <circle cx="86" cy="96" r="1.3" fill="#7A4A16"/>
  <circle cx="93" cy="101" r="1.3" fill="#7A4A16"/>
  <circle cx="112" cy="109" r="1.3" fill="#7A4A16"/>
</svg>
