<svg viewBox="0 0 200 160" xmlns="http://www.w3.org/2000/svg">
  <defs>
    <radialGradient id="bgs" cx="50%" cy="26%" r="85%">
      <stop offset="0%" stop-color="#FBEFC9"/>
      <stop offset="100%" stop-color="#E6C877"/>
    </radialGradient>
    <linearGradient id="bots" x1="0" y1="0" x2="0" y2="1">
      <stop offset="0%" stop-color="#FFFFFF"/>
      <stop offset="100%" stop-color="#EFE7D6"/>
    </linearGradient>
    <linearGradient id="markisa" x1="0" y1="0" x2="0" y2="1">
      <stop offset="0%" stop-color="#F0955A"/>
      <stop offset="100%" stop-color="#C85A1F"/>
    </linearGradient>
    <filter id="softs" x="-40%" y="-40%" width="180%" height="180%">
      <feDropShadow dx="0" dy="5" stdDeviation="4" flood-color="#5a3a15" flood-opacity="0.3"/>
    </filter>
  </defs>
  <rect width="200" height="160" fill="url(#bgs)"/>
  <ellipse cx="100" cy="144" rx="38" ry="7" fill="#5a3a15" opacity="0.2"/>
  <rect x="86" y="30" width="28" height="18" rx="3" fill="#3F6B4F"/>
  <g filter="url(#softs)">
    <path d="M84 48 L116 48 L122 68 L122 132 Q122 140 112 140 L88 140 Q78 140 78 132 L78 68 Z" fill="url(#bots)" stroke="#A6432B" stroke-width="3"/>
    <path d="M80 78 L120 78 L120 130 Q120 136 112 136 L88 136 Q80 136 80 130 Z" fill="url(#markisa)"/>
  </g>
  <ellipse cx="100" cy="78" rx="20" ry="5" fill="#F0955A"/>
  <rect x="70" y="96" width="60" height="24" rx="4" fill="#1E2A44"/>
  <text x="100" y="112" font-family="JetBrains Mono, monospace" font-size="9" fill="#E4C878" text-anchor="middle">MARKISA</text>
  <ellipse cx="88" cy="90" rx="4" ry="14" fill="#ffffff" opacity="0.25"/>
</svg>
