<svg viewBox="0 0 200 160" xmlns="http://www.w3.org/2000/svg">
  <defs>
    <radialGradient id="bgt" cx="50%" cy="28%" r="85%">
      <stop offset="0%" stop-color="#E4EEDD"/>
      <stop offset="100%" stop-color="#AFC9A4"/>
    </radialGradient>
    <linearGradient id="wovenBag" x1="0" y1="0" x2="0" y2="1">
      <stop offset="0%" stop-color="#F0D48F"/>
      <stop offset="100%" stop-color="#C89B3C"/>
    </linearGradient>
    <filter id="softt" x="-40%" y="-40%" width="180%" height="180%">
      <feDropShadow dx="0" dy="5" stdDeviation="4" flood-color="#3F2A10" flood-opacity="0.3"/>
    </filter>
  </defs>
  <rect width="200" height="160" fill="url(#bgt)"/>
  <ellipse cx="100" cy="140" rx="66" ry="9" fill="#3F2A10" opacity="0.18"/>
  <g filter="url(#softt)">
    <path d="M60 62 Q100 40 140 62 L134 132 Q100 144 66 132 Z" fill="url(#wovenBag)" stroke="#6B3A20" stroke-width="3"/>
  </g>
  <path d="M60 62 Q100 78 140 62" stroke="#6B3A20" stroke-width="2" fill="none"/>
  <path d="M64 78 Q100 94 136 78" stroke="#6B3A20" stroke-width="2" fill="none"/>
  <path d="M65 96 Q100 112 135 96" stroke="#6B3A20" stroke-width="2" fill="none"/>
  <path d="M66 112 Q100 126 134 112" stroke="#6B3A20" stroke-width="2" fill="none"/>
  <path d="M76 62 L70 132" stroke="#6B3A20" stroke-width="1.5"/>
  <path d="M92 60 L88 136" stroke="#6B3A20" stroke-width="1.5"/>
  <path d="M108 60 L112 136" stroke="#6B3A20" stroke-width="1.5"/>
  <path d="M124 62 L130 132" stroke="#6B3A20" stroke-width="1.5"/>
  <ellipse cx="90" cy="72" rx="18" ry="6" fill="#FFF4D6" opacity="0.35"/>
  <path d="M76 62 Q78 34 100 34 Q122 34 124 62" fill="none" stroke="#6B3A20" stroke-width="5" stroke-linecap="round"/>
</svg>
