<svg viewBox="0 0 200 160" xmlns="http://www.w3.org/2000/svg">
  <defs>
    <radialGradient id="bgtp" cx="50%" cy="26%" r="85%">
      <stop offset="0%" stop-color="#E4EEDD"/>
      <stop offset="100%" stop-color="#AFC9A4"/>
    </radialGradient>
    <linearGradient id="mat" x1="0" y1="0" x2="1" y2="1">
      <stop offset="0%" stop-color="#F0D48F"/>
      <stop offset="100%" stop-color="#C89B3C"/>
    </linearGradient>
    <filter id="softtp" x="-40%" y="-40%" width="180%" height="180%">
      <feDropShadow dx="0" dy="5" stdDeviation="4" flood-color="#3F2A10" flood-opacity="0.3"/>
    </filter>
  </defs>
  <rect width="200" height="160" fill="url(#bgtp)"/>
  <ellipse cx="100" cy="128" rx="70" ry="8" fill="#3F2A10" opacity="0.15"/>
  <g filter="url(#softtp)">
    <rect x="46" y="44" width="108" height="76" rx="6" fill="url(#mat)" stroke="#6B3A20" stroke-width="3"/>
  </g>
  <g stroke="#6B3A20" stroke-width="2">
    <line x1="46" y1="60" x2="154" y2="60"/>
    <line x1="46" y1="76" x2="154" y2="76"/>
    <line x1="46" y1="92" x2="154" y2="92"/>
    <line x1="46" y1="108" x2="154" y2="108"/>
    <line x1="66" y1="44" x2="66" y2="120"/>
    <line x1="86" y1="44" x2="86" y2="120"/>
    <line x1="106" y1="44" x2="106" y2="120"/>
    <line x1="126" y1="44" x2="126" y2="120"/>
    <line x1="146" y1="44" x2="146" y2="120"/>
  </g>
  <rect x="46" y="44" width="108" height="12" fill="#F8E9C2" opacity="0.5"/>
  <rect x="46" y="44" width="108" height="76" rx="6" fill="none" stroke="#6B3A20" stroke-width="3"/>
</svg>
